<svg width="23" height="33" viewBox="0 0 23 33" fill="none" xmlns="http://www.w3.org/2000/svg">
<path d="M16.4775 0.155396C16.4775 0.155396 19.1252 7.07141 7.77783 11.7168C1.61191 14.2404 -3.12387 20.7084 2.53065 30.6998C2.99894 26.2338 5.00692 16.3868 13.6411 14.1399C13.6411 14.1399 5.60493 17.3483 4.89504 31.8718C9.02438 32.4908 18.7089 32.9067 21.5842 23.9333C25.381 12.0774 16.4775 0.155396 16.4775 0.155396Z" fill="#8DCE97"/>
<path d="M4.89878 31.8113C13.665 28.0758 20.0435 19.3249 20.9239 8.87837C19.1317 3.71687 16.4775 0.155396 16.4775 0.155396C16.4775 0.155396 19.1252 7.07141 7.77783 11.7168C1.61191 14.2404 -3.12387 20.7084 2.53065 30.6998C2.99894 26.2338 5.00692 16.3868 13.6411 14.1399C13.6406 14.1399 5.62835 17.3404 4.89878 31.8113Z" fill="#8DCE97"/>
<path d="M1.65589 11.9473C2.10849 11.9473 2.4754 11.5555 2.4754 11.0722C2.4754 10.589 2.10849 10.1973 1.65589 10.1973C1.20328 10.1973 0.836365 10.589 0.836365 11.0722C0.836365 11.5555 1.20328 11.9473 1.65589 11.9473Z" fill="#8DCE97"/>
<path d="M4.23146 10.8233C4.55474 10.8233 4.81681 10.5433 4.81681 10.1979C4.81681 9.85247 4.55474 9.57251 4.23146 9.57251C3.90819 9.57251 3.64612 9.85247 3.64612 10.1979C3.64612 10.5433 3.90819 10.8233 4.23146 10.8233Z" fill="#8DCE97"/>
<path d="M3.70463 5.82233C4.51283 5.82233 5.168 5.12278 5.168 4.25986C5.168 3.39693 4.51283 2.69739 3.70463 2.69739C2.89644 2.69739 2.24127 3.39693 2.24127 4.25986C2.24127 5.12278 2.89644 5.82233 3.70463 5.82233Z" fill="#8DCE97"/>
<path d="M8.21184 8.32316C8.47051 8.32316 8.68016 8.09916 8.68016 7.82286C8.68016 7.54652 8.47051 7.32251 8.21184 7.32251C7.95324 7.32251 7.74359 7.54652 7.74359 7.82286C7.74359 8.09916 7.95324 8.32316 8.21184 8.32316Z" fill="#8DCE97"/>
<path d="M12.1341 6.44737C12.8776 6.44737 13.4804 5.80378 13.4804 5.00988C13.4804 4.21598 12.8776 3.57239 12.1341 3.57239C11.3905 3.57239 10.7878 4.21598 10.7878 5.00988C10.7878 5.80378 11.3905 6.44737 12.1341 6.44737Z" fill="#8DCE97"/>
</svg>
